inDegrees=yes
name=ik_S52_A12_T02
DataType=double
version=3
OpenSimVersion=4.3-2021-08-27-4bc7ad9
endheader
time	pelvis_tilt	pelvis_list	pelvis_rotation	pelvis_tx	pelvis_ty	pelvis_tz	hip_flexion_r	hip_adduction_r	hip_rotation_r	knee_angle_r	knee_angle_r_beta	ankle_angle_r	subtalar_angle_r	mtp_angle_r	hip_flexion_l	hip_adduction_l	hip_rotation_l	knee_angle_l	knee_angle_l_beta	ankle_angle_l	subtalar_angle_l	mtp_angle_l	lumbar_extension	lumbar_bending	lumbar_rotation	arm_flex_r	arm_add_r	arm_rot_r	elbow_flex_r	pro_sup_r	wrist_flex_r	wrist_dev_r	arm_flex_l	arm_add_l	arm_rot_l	elbow_flex_l	pro_sup_l	wrist_flex_l	wrist_dev_l
11.35999999999985	-2.41990966022628	-0.7435341461286064	28.96702314391154	0	0.9399999999999999	0	44.52419335386757	-11.02017601642262	-11.0739929710125	51.41057724702947	0.8972838433115463	0	0	0	44.52419335386757	-11.02017601642262	-11.0739929710125	51.41057724702947	0.8972838433115463	0	0	0	-2.126971554392243	0.4426626458261546	5.830957860744807	11.15986347140868	-8.09500831288012	-1.69869393319171	5.547966383698359	125.1692791784052	0	4.348697081817208e-53	106.4867194088216	-13.74406445174002	25.6776351884347	41.08134814887016	76.45580238185644	0	4.348697081817208e-53
11.37999999999985	-2.4278633370598	-0.749563902224488	28.92581324540314	0	0.9399999999999999	0	44.52432429117994	-11.01919767912497	-11.07333179370162	51.41124246459764	0.8972954535483532	0	0	0	44.52432429117994	-11.01919767912497	-11.07333179370162	51.41124246459764	0.8972954535483532	0	0	0	-2.136802433574939	0.4407549727067649	5.841473571687729	11.17927710091586	-8.094421689272762	-1.725510060928781	5.560138671117289	125.3045469981943	0	0	106.5440670964596	-13.6694380169491	25.82757903656151	41.12580179134756	76.13551846486959	0	0
11.39999999999985	-2.425727859812506	-0.7514966984937873	28.90892213861311	0	0.9399999999999999	0	44.52446239089512	-11.01816875301995	-11.0726356786151	51.41194553285868	0.8973077244043746	0	0	0	44.52446239089512	-11.01816875301995	-11.0726356786151	51.41194553285868	0.8973077244043746	0	0	0	-2.135720921680846	0.4371904712896611	5.859975379896172	11.15197013462791	-8.097188925335722	-1.736233208821216	5.552371755061376	125.32989767459	0	0	106.5852993389672	-13.58059775439355	25.96861055904058	41.17599777366686	75.93790845302087	0	0
11.41999999999985	-2.426155578675037	-0.7448597192631696	28.90582010544845	0	0.9399999999999999	0	44.52543801335556	-11.01324364760891	-11.06862227736511	51.41716985208171	0.8973989059759917	0	0	0	44.52543801335556	-11.01324364760891	-11.06862227736511	51.41716985208171	0.8973989059759917	0	0	0	-2.133341159845434	0.4430450586083132	5.858027496381626	11.13675510823275	-8.098473916579859	-1.707083613596586	5.52277394983273	125.2024744261381	0	0	106.6186927585743	-13.56819536212478	26.0360771036555	41.26146349515891	75.89377481001256	0	0
11.43999999999984	-2.427178084244602	-0.7455627720151087	28.91257738647214	0	0.9399999999999999	0	44.52641745712839	-11.00760784631328	-11.06434249903125	51.42234546342287	0.8974892374346984	0	0	0	44.52641745712839	-11.00760784631328	-11.06434249903125	51.42234546342287	0.8974892374346984	0	0	0	-2.135022742463052	0.4425712689076463	5.86012596568635	11.1522021193414	-8.081592498873398	-1.711293096334492	5.498340028558355	125.0615533315568	0	0	106.6617295150871	-13.57982370309283	26.01426795077651	41.29432102094334	75.87520846814351	0	0
11.45999999999984	-2.423517953960754	-0.7437293977135168	28.90620725914044	0	0.9399999999999999	0	44.5271868735228	-11.00312604646146	-11.06095987101132	51.42640222343317	0.8975600412538414	0	0	0	44.5271868735228	-11.00312604646146	-11.06095987101132	51.42640222343317	0.8975600412538414	0	0	0	-2.131197856848466	0.4419967148242515	5.862028464010892	11.13743354410683	-8.106527955119045	-1.732934420610235	5.514164835014656	125.0486686423002	0	0	106.7119354576116	-13.59636370703499	25.96324246134206	41.35366539898817	75.86837211423268	0	0
11.47999999999984	-2.446821980823347	-0.7480339831973817	28.94842022039573	0	0.9399999999999999	0	44.52772291203913	-11.00010787646259	-11.05864180025504	51.4292481318807	0.8976097117264612	0	0	0	44.52772291203913	-11.00010787646259	-11.05864180025504	51.4292481318807	0.8976097117264612	0	0	0	-2.154150618005473	0.4502457090076656	5.841479108660811	11.18281481354701	-8.156752133180916	-1.793239277257622	5.530545439989979	125.2875788023756	0	0	106.779095438459	-13.63921498013555	26.05262837305452	41.47883847213097	75.64674726316778	0	0
11.49999999999984	-2.435203383689355	-0.750068232359295	28.985847869538	0	0.9399999999999999	0	44.52788000410017	-10.99894487759122	-11.05785236051235	51.43004552979554	0.8976236289455236	0	0	0	44.52788000410017	-10.99894487759122	-11.05785236051235	51.43004552979554	0.8976236289455236	0	0	0	-2.145047552144445	0.4428516445155216	5.84032643590105	11.17297745531688	-8.118916779352942	-1.76176366800668	5.492173607524936	125.28881441965	0	0	106.7598813811754	-13.65831253669111	26.20506002448534	41.62389551720297	75.46819415838957	0	0
11.51999999999984	-2.438895274775171	-0.7455539960028587	29.0133294282348	0	0.9399999999999999	0	44.52878023743293	-10.99454879308022	-11.05421619217551	51.43489210707335	0.8977082176764738	0	0	0	44.52878023743293	-10.99454879308022	-11.05421619217551	51.43489210707335	0.8977082176764738	0	0	0	-2.146549772411933	0.4485712744357606	5.835126441142157	11.17151041750181	-8.116733316863606	-1.697852683948972	5.466359000213246	125.1895699228102	0	0	106.7566241445454	-13.6331046767539	26.18637449317629	41.68458024882253	75.46745019284488	0	0
11.53999999999984	-2.443035840486692	-0.7499787142297006	29.0435315383799	0	0.9399999999999999	0	44.52897161491758	-10.99313814694026	-11.05325696816769	51.43586501729732	0.8977251981632084	0	0	0	44.52897161491758	-10.99313814694026	-11.05325696816769	51.43586501729732	0.8977251981632084	0	0	0	-2.152510583743339	0.4471168086802214	5.824569703777733	11.19834051154933	-8.120903463414287	-1.66906273725527	5.441982036220073	125.0440683768272	0	0	106.7654304199675	-13.69799979393787	26.33491163006349	41.78386962765109	75.30916949219301	0	0
11.55999999999984	-2.427728111556415	-0.7446742906532607	29.07871342681687	0	0.9399999999999999	0	44.52932926161264	-10.99099311728225	-11.05166189471272	51.43774711078565	0.89775804689141	0	0	0	44.52932926161264	-10.99099311728225	-11.05166189471272	51.43774711078565	0.89775804689141	0	0	0	-2.136777962783418	0.4444863528939377	5.817910689736696	11.16487352376194	-8.141438571497813	-1.732934070936293	5.451000536979684	125.2091003093215	0	0	106.7361997255117	-13.71029167826729	26.46579195111531	41.80625853451954	75.1646093127036	0	0
11.57999999999984	-2.423827432531942	-0.7684297681151103	29.15573715802095	0	0.9399999999999999	0	44.52949848405142	-10.98974707771075	-11.05081402328351	51.43860663820853	0.8977730484749505	0	0	0	44.52949848405142	-10.98974707771075	-11.05081402328351	51.43860663820853	0.8977730484749505	0	0	0	-2.144681887636754	0.4205903952138557	5.844608663787922	11.18818717530432	-8.11488213375339	-1.791782802106859	5.424256282687084	125.3299495737286	0	0	106.7507444431758	-13.63496865282947	26.60156363788849	41.86764992161056	75.02643316780579	0	0
11.59999999999984	-2.421471457970145	-0.763663350553681	29.17660828311679	0	0.9399999999999999	0	44.52998938611434	-10.98720618516117	-11.04877828412725	51.4412325949045	0.89781888006531	0	0	0	44.52998938611434	-10.98720618516117	-11.04877828412725	51.4412325949045	0.89781888006531	0	0	0	-2.140518557015696	0.4234997629261354	5.844121915026316	11.17756995510422	-8.124982366576653	-1.812653922985598	5.398163042424752	125.3981265074017	0	0	106.746924339341	-13.67554575203998	26.62617625553433	41.89422050587655	74.9824236111824	0	0
11.61999999999984	-2.405448172450886	-0.7581720708079189	29.21800009105891	0	0.9399999999999999	0	44.53014017269607	-10.98609764566073	-11.04802338275869	51.44199823671809	0.8978322430358481	0	0	0	44.53014017269607	-10.98609764566073	-11.04802338275869	51.44199823671809	0.8978322430358481	0	0	0	-2.124029038702604	0.4208855995003167	5.833513714941398	11.15667898270539	-8.098075957326214	-1.615495836751939	5.385539041252755	125.1829641434201	0	0	106.7232135100192	-13.72041756584709	26.50068033571795	41.91682729934777	75.09160366241608	0	0
11.63999999999984	-2.406949477606365	-0.7566008325890022	29.25153232213099	0	0.9399999999999999	0	44.53030333898237	-10.98490004592458	-11.0472072677604	51.44282742833789	0.8978467151597433	0	0	0	44.53030333898237	-10.98490004592458	-11.0472072677604	51.44282742833789	0.8978467151597433	0	0	0	-2.124631104460645	0.4229840745291605	5.832680691515947	11.1666276462604	-8.118443363799935	-1.591775109521377	5.385386484380446	125.1186915735143	0	0	106.7135653456653	-13.78905384077459	26.34532060283109	41.94192609643415	75.17928614317884	0	0
11.65999999999984	-2.402484609744704	-0.759807976859574	29.28587795318587	0	0.9399999999999999	0	44.53034701773129	-10.98458296809511	-11.04699036974141	51.44305161262974	0.8978506279137676	0	0	0	44.53034701773129	-10.98458296809511	-11.04699036974141	51.44305161262974	0.8978506279137676	0	0	0	-2.122285134642273	0.4178699301341984	5.83536582317091	11.18519819822154	-8.113499623783921	-1.61641952986429	5.38836478331149	125.1571910499533	0	0	106.6632698634749	-13.87316485075148	26.32284520724071	41.91775515732564	75.15632397956628	0	0
11.67999999999984	-2.400421172613222	-0.7570297336133193	29.31051981975211	0	0.9399999999999999	0	44.53075945264453	-10.98244916548923	-11.04528183764108	51.44525902932508	0.8978891546030647	0	0	0	44.53075945264453	-10.98244916548923	-11.04528183764108	51.44525902932508	0.8978891546030647	0	0	0	-2.119274372970268	0.419067446575988	5.837959351075074	11.1805427734417	-8.130065265957322	-1.635331695414797	5.36100436886134	125.1965794498202	0	0	106.6652313829803	-13.90487877599023	26.36641851224484	41.90771263854005	75.1140221925145	0	0
11.69999999999984	-2.399083355436021	-0.7493848115470256	29.34872623225746	0	0.9399999999999999	0	44.53116950419055	-10.98035259534063	-11.04359262086956	51.44745747350176	0.8979275246923691	0	0	0	44.53116950419055	-10.98035259534063	-11.04359262086956	51.44745747350176	0.8979275246923691	0	0	0	-2.11444175940082	0.4245796152621292	5.846996556108512	11.16389696572449	-8.156114048653476	-1.638311046802369	5.352579787897316	125.2032501711677	0	0	106.6525232833153	-13.92461241580702	26.43121400044383	41.91475684679886	75.11343664750547	0	0
11.71999999999984	-2.390591313373347	-0.7563755304177555	29.35332820711933	0	0.9399999999999999	0	44.53149193615092	-10.97862637926501	-11.04223453247787	51.44918236403014	0.8979576297113256	0	0	0	44.53149193615092	-10.97862637926501	-11.04223453247787	51.44918236403014	0.8979576297113256	0	0	0	-2.110672944040346	0.4145212618336816	5.84047127558494	11.14501782534734	-8.134377945327044	-1.62932836758509	5.328505860340127	125.1766652891469	0	0	106.6486716450684	-13.92443419822466	26.46179245121285	41.87975288712094	75.10606524704198	0	0
11.73999999999984	-2.385609553170765	-0.7544682277960766	29.37236210006295	0	0.9399999999999999	0	44.53156524145993	-10.97809413344525	-11.04187034126337	51.44955741377447	0.8979641755642231	0	0	0	44.53156524145993	-10.97809413344525	-11.04187034126337	51.44955741377447	0.8979641755642231	0	0	0	-2.105532353968175	0.4141059965275404	5.831727197969317	11.13811140886743	-8.136763918467615	-1.605023726890791	5.336778303208484	125.1865388946702	0	0	106.5999807396477	-13.9623444370095	26.57508980002983	41.85343466826634	75.01281035769397	0	0
